<svg width="55" height="34" viewBox="0 0 55 34" fill="none" xmlns="http://www.w3.org/2000/svg">
<path d="M13.0592 33.607C10.4963 33.607 8.29654 32.9585 6.45994 31.6615C4.63373 30.3541 3.22775 28.4708 2.242 26.0116C1.26664 23.5421 0.778955 20.5693 0.778955 17.0932C0.789331 13.6172 1.2822 10.66 2.25757 8.22155C3.24331 5.77276 4.64929 3.90504 6.47551 2.61838C8.3121 1.33173 10.5067 0.688403 13.0592 0.688403C15.6118 0.688403 17.8064 1.33173 19.6429 2.61838C21.4795 3.90504 22.8855 5.77276 23.8609 8.22155C24.8466 10.6703 25.3395 13.6276 25.3395 17.0932C25.3395 20.5796 24.8466 23.5576 23.8609 26.0272C22.8855 28.4863 21.4795 30.3644 19.6429 31.6615C17.8167 32.9585 15.6222 33.607 13.0592 33.607ZM13.0592 28.7354C15.0515 28.7354 16.6235 27.7548 17.7752 25.7937C18.9374 23.8222 19.5184 20.9221 19.5184 17.0932C19.5184 14.5614 19.2538 12.4343 18.7247 10.7118C18.1955 8.98939 17.4484 7.69236 16.4834 6.82076C15.5184 5.93878 14.377 5.49779 13.0592 5.49779C11.0774 5.49779 9.51056 6.48353 8.35879 8.45501C7.20703 10.4161 6.62596 13.2955 6.61559 17.0932C6.60521 19.6354 6.85943 21.7729 7.37824 23.5057C7.90743 25.2386 8.65452 26.546 9.61951 27.428C10.5845 28.2996 11.7311 28.7354 13.0592 28.7354ZM29.4966 27.0855V22.4941L43.022 1.12421H46.8508V7.66123H44.5162L35.411 22.0894V22.3384H54.2906V27.0855H29.4966ZM44.703 33V25.6848L44.7652 23.6303V1.12421H50.2127V33H44.703Z" fill="#FF5331"/>
</svg>
